<mxfile host="app.diagrams.net" modified="2021-04-24T03:32:29.182Z" agent="5.0 (Windows NT 10.0; Win64; x64) AppleWebKit/537.36 (KHTML, like Gecko) Chrome/91.0.4471.0 Safari/537.36 Edg/91.0.864.1" etag="JQTSMKdIc0OEQRzgv0lA" version="14.6.6" type="github">
  <diagram id="kXIEVZA1hbExhX5Ozc5R" name="Page-1">
    <mxGraphModel dx="1422" dy="794" grid="1" gridSize="10" guides="1" tooltips="1" connect="1" arrows="1" fold="1" page="1" pageScale="1" pageWidth="1169" pageHeight="1654" math="0" shadow="0">
      <root>
        <mxCell id="0" />
        <mxCell id="1" parent="0" />
        <mxCell id="2bao1KNZBaHZsBBibMB4-11" style="edgeStyle=orthogonalEdgeStyle;rounded=0;orthogonalLoop=1;jettySize=auto;html=1;" parent="1" source="Q6ypxZt8FOQjwD9Kqvpz-1" target="2bao1KNZBaHZsBBibMB4-10" edge="1">
          <mxGeometry relative="1" as="geometry" />
        </mxCell>
        <mxCell id="Q6ypxZt8FOQjwD9Kqvpz-1" value="用户" style="shape=umlActor;verticalLabelPosition=bottom;verticalAlign=top;html=1;outlineConnect=0;" parent="1" vertex="1">
          <mxGeometry x="150" y="570" width="40" height="60" as="geometry" />
        </mxCell>
        <mxCell id="Q6ypxZt8FOQjwD9Kqvpz-2" value="redis" style="shape=cylinder3;whiteSpace=wrap;html=1;boundedLbl=1;backgroundOutline=1;size=15;fillColor=#d5e8d4;strokeColor=#82b366;" parent="1" vertex="1">
          <mxGeometry x="670" y="560" width="60" height="80" as="geometry" />
        </mxCell>
        <mxCell id="2bao1KNZBaHZsBBibMB4-15" style="edgeStyle=orthogonalEdgeStyle;rounded=0;orthogonalLoop=1;jettySize=auto;html=1;entryX=0.5;entryY=0;entryDx=0;entryDy=0;entryPerimeter=0;" parent="1" source="2bao1KNZBaHZsBBibMB4-2" target="Q6ypxZt8FOQjwD9Kqvpz-2" edge="1">
          <mxGeometry relative="1" as="geometry" />
        </mxCell>
        <mxCell id="2bao1KNZBaHZsBBibMB4-35" style="edgeStyle=orthogonalEdgeStyle;rounded=0;orthogonalLoop=1;jettySize=auto;html=1;" parent="1" source="2bao1KNZBaHZsBBibMB4-2" target="2bao1KNZBaHZsBBibMB4-34" edge="1">
          <mxGeometry relative="1" as="geometry" />
        </mxCell>
        <mxCell id="2bao1KNZBaHZsBBibMB4-2" value="课程服务" style="rounded=1;whiteSpace=wrap;html=1;fillColor=#dae8fc;strokeColor=#6c8ebf;" parent="1" vertex="1">
          <mxGeometry x="640" y="320" width="120" height="60" as="geometry" />
        </mxCell>
        <mxCell id="2bao1KNZBaHZsBBibMB4-9" value="1.将课程库存数量以及抢课的开始以及结束时间提前存储到缓存中" style="text;html=1;strokeColor=none;fillColor=none;align=center;verticalAlign=middle;whiteSpace=wrap;rounded=0;" parent="1" vertex="1">
          <mxGeometry x="450" y="420" width="240" height="60" as="geometry" />
        </mxCell>
        <mxCell id="2bao1KNZBaHZsBBibMB4-13" style="edgeStyle=orthogonalEdgeStyle;rounded=0;orthogonalLoop=1;jettySize=auto;html=1;" parent="1" source="2bao1KNZBaHZsBBibMB4-10" target="Q6ypxZt8FOQjwD9Kqvpz-2" edge="1">
          <mxGeometry relative="1" as="geometry" />
        </mxCell>
        <mxCell id="2bao1KNZBaHZsBBibMB4-20" style="edgeStyle=orthogonalEdgeStyle;rounded=0;orthogonalLoop=1;jettySize=auto;html=1;entryX=0.5;entryY=0;entryDx=0;entryDy=0;" parent="1" source="2bao1KNZBaHZsBBibMB4-10" target="2bao1KNZBaHZsBBibMB4-19" edge="1">
          <mxGeometry relative="1" as="geometry" />
        </mxCell>
        <mxCell id="2bao1KNZBaHZsBBibMB4-10" value="用户服务（缓存）" style="rounded=1;whiteSpace=wrap;html=1;fillColor=#dae8fc;strokeColor=#6c8ebf;" parent="1" vertex="1">
          <mxGeometry x="370" y="570" width="120" height="60" as="geometry" />
        </mxCell>
        <mxCell id="2bao1KNZBaHZsBBibMB4-12" value="2.请求抢课接口" style="text;html=1;strokeColor=none;fillColor=none;align=center;verticalAlign=middle;whiteSpace=wrap;rounded=0;" parent="1" vertex="1">
          <mxGeometry x="250" y="570" width="60" height="20" as="geometry" />
        </mxCell>
        <mxCell id="2bao1KNZBaHZsBBibMB4-14" value="3.判断抢课是否开始" style="text;html=1;strokeColor=none;fillColor=none;align=center;verticalAlign=middle;whiteSpace=wrap;rounded=0;" parent="1" vertex="1">
          <mxGeometry x="520" y="560" width="120" height="20" as="geometry" />
        </mxCell>
        <mxCell id="2bao1KNZBaHZsBBibMB4-17" value="4.lua+布隆过滤器判断用户是否重复抢课" style="text;html=1;strokeColor=none;fillColor=none;align=center;verticalAlign=middle;whiteSpace=wrap;rounded=0;" parent="1" vertex="1">
          <mxGeometry x="525" y="610" width="110" height="20" as="geometry" />
        </mxCell>
        <mxCell id="2bao1KNZBaHZsBBibMB4-18" value="5.缓存中扣减库存" style="text;html=1;strokeColor=none;fillColor=none;align=center;verticalAlign=middle;whiteSpace=wrap;rounded=0;" parent="1" vertex="1">
          <mxGeometry x="525" y="640" width="105" height="30" as="geometry" />
        </mxCell>
        <mxCell id="2bao1KNZBaHZsBBibMB4-26" style="edgeStyle=orthogonalEdgeStyle;rounded=0;orthogonalLoop=1;jettySize=auto;html=1;entryX=-0.025;entryY=0.633;entryDx=0;entryDy=0;entryPerimeter=0;" parent="1" source="2bao1KNZBaHZsBBibMB4-19" target="2bao1KNZBaHZsBBibMB4-24" edge="1">
          <mxGeometry relative="1" as="geometry" />
        </mxCell>
        <mxCell id="2bao1KNZBaHZsBBibMB4-40" style="edgeStyle=orthogonalEdgeStyle;rounded=0;orthogonalLoop=1;jettySize=auto;html=1;exitX=0.5;exitY=1;exitDx=0;exitDy=0;" parent="1" source="2bao1KNZBaHZsBBibMB4-19" target="2bao1KNZBaHZsBBibMB4-39" edge="1">
          <mxGeometry relative="1" as="geometry" />
        </mxCell>
        <mxCell id="2bao1KNZBaHZsBBibMB4-19" value="rocketmq" style="shape=process;whiteSpace=wrap;html=1;backgroundOutline=1;" parent="1" vertex="1">
          <mxGeometry x="370" y="840" width="120" height="60" as="geometry" />
        </mxCell>
        <mxCell id="2bao1KNZBaHZsBBibMB4-21" value="6.发送库存扣减生成订单的消息" style="text;html=1;strokeColor=none;fillColor=none;align=center;verticalAlign=middle;whiteSpace=wrap;rounded=0;" parent="1" vertex="1">
          <mxGeometry x="330" y="740" width="90" height="20" as="geometry" />
        </mxCell>
        <mxCell id="2bao1KNZBaHZsBBibMB4-23" value="7.监听消费消息" style="text;html=1;strokeColor=none;fillColor=none;align=center;verticalAlign=middle;whiteSpace=wrap;rounded=0;" parent="1" vertex="1">
          <mxGeometry x="580" y="840" width="100" height="20" as="geometry" />
        </mxCell>
        <mxCell id="2bao1KNZBaHZsBBibMB4-28" style="edgeStyle=orthogonalEdgeStyle;rounded=0;orthogonalLoop=1;jettySize=auto;html=1;entryX=1;entryY=0.5;entryDx=0;entryDy=0;" parent="1" source="2bao1KNZBaHZsBBibMB4-24" target="2bao1KNZBaHZsBBibMB4-2" edge="1">
          <mxGeometry relative="1" as="geometry" />
        </mxCell>
        <mxCell id="2bao1KNZBaHZsBBibMB4-31" style="edgeStyle=orthogonalEdgeStyle;rounded=0;orthogonalLoop=1;jettySize=auto;html=1;entryX=0;entryY=0;entryDx=0;entryDy=52.5;entryPerimeter=0;" parent="1" source="2bao1KNZBaHZsBBibMB4-24" target="2bao1KNZBaHZsBBibMB4-30" edge="1">
          <mxGeometry relative="1" as="geometry" />
        </mxCell>
        <mxCell id="2bao1KNZBaHZsBBibMB4-43" style="edgeStyle=orthogonalEdgeStyle;rounded=0;orthogonalLoop=1;jettySize=auto;html=1;" parent="1" source="2bao1KNZBaHZsBBibMB4-24" edge="1">
          <mxGeometry relative="1" as="geometry">
            <mxPoint x="820" y="1000" as="targetPoint" />
          </mxGeometry>
        </mxCell>
        <mxCell id="2bao1KNZBaHZsBBibMB4-24" value="用户服务(db)" style="rounded=1;whiteSpace=wrap;html=1;fillColor=#dae8fc;strokeColor=#6c8ebf;" parent="1" vertex="1">
          <mxGeometry x="760" y="832" width="120" height="60" as="geometry" />
        </mxCell>
        <mxCell id="2bao1KNZBaHZsBBibMB4-29" value="8.rpc调用扣减库存" style="text;html=1;strokeColor=none;fillColor=none;align=center;verticalAlign=middle;whiteSpace=wrap;rounded=0;" parent="1" vertex="1">
          <mxGeometry x="830" y="570" width="110" height="20" as="geometry" />
        </mxCell>
        <mxCell id="2bao1KNZBaHZsBBibMB4-30" value="mysql" style="shape=cylinder3;whiteSpace=wrap;html=1;boundedLbl=1;backgroundOutline=1;size=15;fillColor=#fff2cc;strokeColor=#d6b656;" parent="1" vertex="1">
          <mxGeometry x="1050" y="810" width="60" height="80" as="geometry" />
        </mxCell>
        <mxCell id="2bao1KNZBaHZsBBibMB4-32" value="10.生成课程持有记录" style="text;html=1;strokeColor=none;fillColor=none;align=center;verticalAlign=middle;whiteSpace=wrap;rounded=0;" parent="1" vertex="1">
          <mxGeometry x="920" y="832" width="110" height="20" as="geometry" />
        </mxCell>
        <mxCell id="2bao1KNZBaHZsBBibMB4-34" value="mysql" style="shape=cylinder3;whiteSpace=wrap;html=1;boundedLbl=1;backgroundOutline=1;size=15;fillColor=#fff2cc;strokeColor=#d6b656;" parent="1" vertex="1">
          <mxGeometry x="670" y="170" width="60" height="80" as="geometry" />
        </mxCell>
        <mxCell id="2bao1KNZBaHZsBBibMB4-36" value="9.扣减库存" style="text;html=1;strokeColor=none;fillColor=none;align=center;verticalAlign=middle;whiteSpace=wrap;rounded=0;" parent="1" vertex="1">
          <mxGeometry x="630" y="270" width="40" height="20" as="geometry" />
        </mxCell>
        <mxCell id="2bao1KNZBaHZsBBibMB4-39" value="mysql" style="shape=cylinder3;whiteSpace=wrap;html=1;boundedLbl=1;backgroundOutline=1;size=15;fillColor=#fff2cc;strokeColor=#d6b656;" parent="1" vertex="1">
          <mxGeometry x="400" y="1002" width="60" height="80" as="geometry" />
        </mxCell>
        <mxCell id="2bao1KNZBaHZsBBibMB4-41" value="plus:步骤六如果发送消息失败，将抢课信息记录到user_course_task表中" style="text;html=1;strokeColor=none;fillColor=none;align=center;verticalAlign=middle;whiteSpace=wrap;rounded=0;" parent="1" vertex="1">
          <mxGeometry x="200" y="960" width="220" height="20" as="geometry" />
        </mxCell>
        <mxCell id="2bao1KNZBaHZsBBibMB4-46" style="edgeStyle=orthogonalEdgeStyle;rounded=0;orthogonalLoop=1;jettySize=auto;html=1;entryX=0;entryY=0.5;entryDx=0;entryDy=0;" parent="1" source="2bao1KNZBaHZsBBibMB4-42" target="2bao1KNZBaHZsBBibMB4-45" edge="1">
          <mxGeometry relative="1" as="geometry">
            <mxPoint x="1010" y="1030" as="targetPoint" />
          </mxGeometry>
        </mxCell>
        <mxCell id="2bao1KNZBaHZsBBibMB4-50" style="edgeStyle=orthogonalEdgeStyle;rounded=0;orthogonalLoop=1;jettySize=auto;html=1;entryX=1;entryY=0;entryDx=0;entryDy=27.5;entryPerimeter=0;" parent="1" source="2bao1KNZBaHZsBBibMB4-42" target="2bao1KNZBaHZsBBibMB4-39" edge="1">
          <mxGeometry relative="1" as="geometry" />
        </mxCell>
        <mxCell id="2bao1KNZBaHZsBBibMB4-42" value="rocketmq" style="shape=process;whiteSpace=wrap;html=1;backgroundOutline=1;" parent="1" vertex="1">
          <mxGeometry x="760" y="1000" width="120" height="60" as="geometry" />
        </mxCell>
        <mxCell id="2bao1KNZBaHZsBBibMB4-44" value="11.发送课程取消的延迟消息" style="text;html=1;strokeColor=none;fillColor=none;align=center;verticalAlign=middle;whiteSpace=wrap;rounded=0;" parent="1" vertex="1">
          <mxGeometry x="840" y="940" width="100" height="20" as="geometry" />
        </mxCell>
        <mxCell id="2bao1KNZBaHZsBBibMB4-48" style="edgeStyle=orthogonalEdgeStyle;rounded=0;orthogonalLoop=1;jettySize=auto;html=1;" parent="1" source="2bao1KNZBaHZsBBibMB4-45" edge="1">
          <mxGeometry relative="1" as="geometry">
            <mxPoint x="640" y="350" as="targetPoint" />
            <Array as="points">
              <mxPoint x="1260" y="1030" />
              <mxPoint x="1260" y="150" />
              <mxPoint x="610" y="150" />
              <mxPoint x="610" y="350" />
            </Array>
          </mxGeometry>
        </mxCell>
        <mxCell id="2bao1KNZBaHZsBBibMB4-45" value="用户服务：取消课程持有" style="rounded=1;whiteSpace=wrap;html=1;fillColor=#dae8fc;strokeColor=#6c8ebf;" parent="1" vertex="1">
          <mxGeometry x="1120" y="1000" width="120" height="60" as="geometry" />
        </mxCell>
        <mxCell id="2bao1KNZBaHZsBBibMB4-47" value="12.用户没有二次确认课程持有，抢课记录修改为cancel" style="text;html=1;strokeColor=none;fillColor=none;align=center;verticalAlign=middle;whiteSpace=wrap;rounded=0;" parent="1" vertex="1">
          <mxGeometry x="910" y="1050" width="170" height="20" as="geometry" />
        </mxCell>
        <mxCell id="2bao1KNZBaHZsBBibMB4-49" value="13.rpc调用：释放库存" style="text;html=1;strokeColor=none;fillColor=none;align=center;verticalAlign=middle;whiteSpace=wrap;rounded=0;" parent="1" vertex="1">
          <mxGeometry x="1099" y="480" width="140" height="20" as="geometry" />
        </mxCell>
        <mxCell id="2bao1KNZBaHZsBBibMB4-51" value="plus:步骤11如果发送消息失败，将抢课信息记录到user_course_cancel_task表中" style="text;html=1;strokeColor=none;fillColor=none;align=center;verticalAlign=middle;whiteSpace=wrap;rounded=0;" parent="1" vertex="1">
          <mxGeometry x="500" y="1000" width="220" height="20" as="geometry" />
        </mxCell>
        <mxCell id="2bao1KNZBaHZsBBibMB4-54" style="edgeStyle=orthogonalEdgeStyle;rounded=0;orthogonalLoop=1;jettySize=auto;html=1;" parent="1" source="2bao1KNZBaHZsBBibMB4-52" target="2bao1KNZBaHZsBBibMB4-39" edge="1">
          <mxGeometry relative="1" as="geometry" />
        </mxCell>
        <mxCell id="2bao1KNZBaHZsBBibMB4-52" value="用户服务：补偿任务" style="rounded=1;whiteSpace=wrap;html=1;fillColor=#dae8fc;strokeColor=#6c8ebf;" parent="1" vertex="1">
          <mxGeometry x="370" y="1180" width="120" height="50" as="geometry" />
        </mxCell>
        <mxCell id="2bao1KNZBaHZsBBibMB4-55" value="plus:每隔一小段时间对上面两个plus步骤中task表中的记录进行业务上的补偿" style="text;html=1;strokeColor=none;fillColor=none;align=center;verticalAlign=middle;whiteSpace=wrap;rounded=0;" parent="1" vertex="1">
          <mxGeometry x="460" y="1120" width="320" height="20" as="geometry" />
        </mxCell>
      </root>
    </mxGraphModel>
  </diagram>
</mxfile>
